<?xml version="1.0" encoding="UTF-8"?>
<svg width="64px" height="64px" viewBox="0 0 64 64" version="1.1" xmlns="http://www.w3.org/2000/svg" xmlns:xlink="http://www.w3.org/1999/xlink">
    <title>商户端统计</title>
    <defs>
        <filter color-interpolation-filters="auto" id="filter-1">
            <feColorMatrix in="SourceGraphic" type="matrix" values="0 0 0 0 1.000000 0 0 0 0 1.000000 0 0 0 0 1.000000 0 0 0 0.905545 0"></feColorMatrix>
        </filter>
    </defs>
    <g id="页面-1" stroke="none" stroke-width="1" fill="none" fill-rule="evenodd">
        <g id="短视频-首次访问" transform="translate(-150.000000, -261.000000)">
            <g id="编组-4" transform="translate(60.000000, 228.000000)">
                <g id="商户端统计" transform="translate(90.000000, 33.000000)" filter="url(#filter-1)">
                    <g>
                        <rect id="矩形" fill="#000000" fill-rule="nonzero" opacity="0" x="0" y="0" width="64" height="64"></rect>
                        <path d="M59.027104,25.5734605 C59.027104,25.3350876 58.9898337,25.0967146 58.9028697,24.8520687 L58.853176,24.7015174 C58.7600003,24.3627768 58.6481894,24.0365823 58.50532,23.7229337 L53.1694579,8.58625148 C52.6041919,6.98037057 51.0885337,5.90769231 49.3865242,5.90769231 L14.9239361,5.90769231 C13.2467734,5.90769231 11.7435387,6.95527868 11.1596376,8.53606771 L5.79271685,23.1583662 C5.23987433,24.1494958 4.92307692,25.2911767 4.92307692,26.5081334 C4.92307692,30.2844627 7.95439325,33.3456732 11.6938449,33.3456732 C15.0295352,33.3456732 17.8061713,30.905487 18.3590138,27.6999981 L18.5640004,27.6999981 C19.1230546,30.905487 21.893479,33.3456732 25.2291693,33.3456732 C28.5648596,33.3456732 31.3414956,30.905487 31.8943382,27.6999981 L32.0993247,27.6999981 C32.658379,30.905487 35.4288033,33.3456732 38.7644936,33.3456732 C42.1001839,33.3456732 44.87682,30.905487 45.4296625,27.6999981 L45.634649,27.6999981 C46.1937033,30.905487 48.9641276,33.3456732 52.2998179,33.3456732 C56.0392696,33.3456732 59.070586,30.2844627 59.070586,26.5081334 C59.0892211,26.1944848 59.0643742,25.8808361 59.027104,25.5734605 L59.027104,25.5734605 Z M50.0387541,57.1076923 L14.470481,57.1076923 C11.3646241,57.1076923 8.83645661,54.4040412 8.83645661,51.0856389 L8.83645661,34.0231542 L12.8119534,34.0231542 L12.8119534,51.0856389 C12.8119534,52.189682 13.5573591,53.09299 14.470481,53.09299 L50.0387541,53.09299 C50.951876,53.09299 51.6972817,52.189682 51.6972817,51.0856389 L51.6972817,34.0231542 L55.6727785,34.0231542 L55.6727785,51.0856389 C55.6727785,54.4040412 53.144611,57.1076923 50.0387541,57.1076923 Z" id="形状" fill="#000000" fill-rule="nonzero"></path>
                        <polygon id="路径" fill="#000000" fill-rule="nonzero" points="54.1538462 54.1538462 11.8153846 54.1213863 18.6421484 42.3384615 45.9492035 42.3384615"></polygon>
                    </g>
                </g>
            </g>
        </g>
    </g>
</svg>