<?xml version="1.0" encoding="UTF-8"?>
<svg width="311px" height="311px" viewBox="0 0 311 311" version="1.1" xmlns="http://www.w3.org/2000/svg" xmlns:xlink="http://www.w3.org/1999/xlink">
    <title>share备份</title>
    <defs>
        <filter color-interpolation-filters="auto" id="filter-1">
            <feColorMatrix in="SourceGraphic" type="matrix" values="0 0 0 0 0.847000 0 0 0 0 0.847000 0 0 0 0 0.847000 0 0 0 1.000000 0"></feColorMatrix>
        </filter>
    </defs>
    <g id="小程序" stroke="none" stroke-width="1" fill="none" fill-rule="evenodd">
        <g id="share备份" transform="translate(-39.000000, -386.000000)" filter="url(#filter-1)">
            <g transform="translate(39.000000, 386.000000)">
                <rect id="矩形" fill="#000000" fill-rule="nonzero" opacity="0" x="0" y="0" width="311" height="311"></rect>
                <path d="M267.351351,167.648649 C262.205405,167.648649 257.702703,172.151351 257.702703,177.297297 L257.702703,254.486486 C257.702703,256.416216 256.416216,257.702703 254.486486,257.702703 L61.5135136,257.702703 C59.5837839,257.702703 58.2972973,256.416216 58.2972973,254.486486 L58.2972973,61.5135136 C58.2972973,59.5837839 59.5837839,58.2972973 61.5135136,58.2972973 L138.702703,58.2972973 C143.848649,58.2972973 148.351351,53.7945947 148.351351,48.6486486 C148.351351,43.5027026 143.848649,39 138.702703,39 L61.5135136,39 C49.2918921,39 39,49.2918921 39,61.5135136 L39,254.486486 C39,266.708108 49.2918918,277 61.5135136,277 L254.486486,277 C266.708108,277 277,266.708108 277,254.486486 L277,177.297297 C277,172.151351 272.497297,167.648649 267.351351,167.648649 Z M267.351351,39 L196.594595,39 C191.448649,39 186.945946,43.5027026 186.945946,48.6486486 C186.945946,53.7945947 191.448649,58.2972973 196.594595,58.2972973 L244.194595,58.2972973 L157.356757,144.491892 C153.497297,148.351351 153.497297,154.140541 157.356757,158 C159.286487,159.92973 161.859459,160.572973 164.432432,160.572973 C167.005405,160.572973 169.578378,159.92973 171.508108,158 L257.702703,71.8054054 L257.702703,119.405405 C257.702703,124.551351 262.205405,129.054054 267.351351,129.054054 C272.497297,129.054054 277,124.551351 277,119.405405 L277,48.6486486 C277,43.5027026 272.497297,39 267.351351,39 L267.351351,39 Z" id="形状" fill="#000000" fill-rule="nonzero"></path>
            </g>
        </g>
    </g>
</svg>