<?xml version="1.0" encoding="UTF-8"?>
<svg width="64px" height="64px" viewBox="0 0 64 64" version="1.1" xmlns="http://www.w3.org/2000/svg" xmlns:xlink="http://www.w3.org/1999/xlink">
    <title>用户</title>
    <g id="页面-1" stroke="none" stroke-width="1" fill="none" fill-rule="evenodd">
        <g id="短视频-首次访问" transform="translate(-152.000000, -453.000000)" fill-rule="nonzero">
            <g id="编组-6" transform="translate(60.000000, 420.000000)">
                <g id="用户" transform="translate(92.000000, 33.000000)">
                    <rect id="矩形" fill="#000000" opacity="0" x="0" y="0" width="64" height="64"></rect>
                    <path d="M38.94375,37.7625 C38.65,37.7625 36.6125,36.625 37.78125,32.925 C40.98125,29.5125 43.6,24.10625 43.6,18.9875 C43.6,10.7375 38.06875,6.475 31.95625,6.475 C25.55625,6.475 20.3125,10.74375 20.3125,18.9875 C20.3125,24.39375 22.93125,29.79375 26.13125,33.20625 C27.29375,36.3375 24.96875,37.75625 24.3875,37.75625 C17.9875,40.31875 10.125,44.58125 10.125,48.85 L10.125,50.5625 C10.125,56.25 21.475,57.675 31.95,57.675 C42.425,57.675 53.7875,56.25 53.7875,50.5625 L53.7875,48.85625 C53.7875,44.30625 45.93125,40.0375 38.94375,37.7625 Z" id="路径" fill-opacity="0.91" fill="#FFFFFF"></path>
                </g>
            </g>
        </g>
    </g>
</svg>